<svg width="50" height="50" viewBox="0 0 50 50" fill="none" xmlns="http://www.w3.org/2000/svg">
<path fill-rule="evenodd" clip-rule="evenodd" d="M25 50C38.8071 50 50 38.8071 50 25C50 11.1929 38.8071 0 25 0C11.1929 0 0 11.1929 0 25C0 38.8071 11.1929 50 25 50ZM25 42C34.3888 42 42 34.3888 42 25C42 15.6112 34.3888 8 25 8C15.6112 8 8 15.6112 8 25C8 34.3888 15.6112 42 25 42Z" fill="#5F5F5F"/>
<path fill-rule="evenodd" clip-rule="evenodd" d="M21.0497 0.310345L22.3138 8.21103C23.1887 8.07214 24.0859 8 25 8C25.9141 8 26.8113 8.07214 27.6862 8.21103L28.9503 0.310345C27.6636 0.106087 26.3442 0 25 0C23.6558 0 22.3364 0.106087 21.0497 0.310345Z" fill="#C4C4C4"/>
</svg>
