<?xml version="1.0" encoding="UTF-8" standalone="no"?>
<svg width="175px" height="98px" viewBox="0 0 175 98" version="1.1" xmlns="http://www.w3.org/2000/svg" xmlns:xlink="http://www.w3.org/1999/xlink">
    <!-- Generator: Sketch 41.1 (35376) - http://www.bohemiancoding.com/sketch -->
    <title>icons/position-controls-2</title>
    <desc>Created with Sketch.</desc>
    <defs></defs>
    <g id="All-Screens" stroke="none" stroke-width="1" fill="none" fill-rule="evenodd" opacity="0.5">
        <g id="Styles-Sidebar" transform="translate(-28.000000, -1406.000000)">
            <g id="icons/position-controls-2" transform="translate(29.000000, 1407.000000)">
                <path d="M87,27.5076694 L87,0.507669441" id="Line" stroke="#979797" stroke-width="2" stroke-linecap="square"></path>
                <g id="Group-11" transform="translate(84.000000, 26.000000)" stroke="#979797" stroke-width="2" stroke-linecap="square">
                    <path d="M3,1.50766944 L-1.42108547e-14,2.62900812e-13" id="Line-Copy-14"></path>
                    <path d="M3,1.50766944 L6,2.62900812e-13" id="Line-Copy-15"></path>
                </g>
                <g id="Group-11-Copy-2" transform="translate(87.000000, 67.000000) scale(1, -1) translate(-87.000000, -67.000000) translate(84.000000, 66.000000)" stroke="#979797" stroke-width="2" stroke-linecap="square">
                    <path d="M3,1.50766944 L-1.42108547e-14,2.62900812e-13" id="Line-Copy-14"></path>
                    <path d="M3,1.50766944 L6,2.62900812e-13" id="Line-Copy-15"></path>
                </g>
                <g id="Group-11-Copy-4" transform="translate(51.000000, 47.000000) scale(1, -1) rotate(-90.000000) translate(-51.000000, -47.000000) translate(48.000000, 46.000000)" stroke="#979797" stroke-width="2" stroke-linecap="square">
                    <path d="M3,1.50766944 L-1.42108547e-14,2.62900812e-13" id="Line-Copy-14"></path>
                    <path d="M3,1.50766944 L6,2.62900812e-13" id="Line-Copy-15"></path>
                </g>
                <g id="Group-11-Copy-3" transform="translate(122.000000, 47.000000) scale(1, -1) rotate(90.000000) translate(-122.000000, -47.000000) translate(119.000000, 46.000000)" stroke="#979797" stroke-width="2" stroke-linecap="square">
                    <path d="M3,1.50766944 L-1.42108547e-14,2.62900812e-13" id="Line-Copy-14"></path>
                    <path d="M3,1.50766944 L6,2.62900812e-13" id="Line-Copy-15"></path>
                </g>
                <path d="M87,68.4968356 L87,95.4968356" id="Line" stroke="#979797" stroke-width="2" stroke-linecap="square"></path>
                <path d="M50.5,47 L0.5,47" id="Line" stroke="#979797" stroke-width="2" stroke-linecap="square"></path>
                <path d="M123,47 L173,47" id="Line" stroke="#979797" stroke-width="2" stroke-linecap="square"></path>
                <rect id="Rectangle-51" fill-opacity="0.5" fill="#979797" x="56" y="32" width="62" height="30"></rect>
            </g>
        </g>
    </g>
</svg>