<?xml version="1.0" encoding="UTF-8" standalone="no"?>
<svg width="210px" height="122px" viewBox="0 0 210 122" version="1.1" xmlns="http://www.w3.org/2000/svg" xmlns:xlink="http://www.w3.org/1999/xlink">
    <!-- Generator: Sketch 41.1 (35376) - http://www.bohemiancoding.com/sketch -->
    <title>icons/position-controls</title>
    <desc>Created with Sketch.</desc>
    <defs></defs>
    <g id="Symbols" stroke="none" stroke-width="1" fill="none" fill-rule="evenodd">
        <g id="Position-Control" transform="translate(-7.000000, -59.000000)">
            <g id="icons/position-controls" transform="translate(7.000000, 58.000000)">
                <g id="Group-2" transform="translate(63.000000, 56.000000)" stroke="#979797" stroke-linecap="square">
                    <path d="M6.5,6.5 L0.5,0.5" id="Line"></path>
                    <path d="M6.5,6.5 L0.5,12.5" id="Line-Copy-6"></path>
                </g>
                <g id="Group-3" transform="translate(140.000000, 56.000000)" stroke="#979797" stroke-linecap="square">
                    <path d="M0.5,6.5 L6.5,0.5" id="Line"></path>
                    <path d="M0.5,6.5 L6.5,12.5" id="Line"></path>
                </g>
                <g id="Group-4" transform="translate(98.500000, 81.000000)" stroke="#979797" stroke-linecap="square">
                    <path d="M6.5,0.5 L0.5,6.5" id="Line"></path>
                    <path d="M6.5,0.5 L12.5,6.5" id="Line"></path>
                </g>
                <g id="Group-4-Copy" transform="translate(105.000000, 40.500000) scale(1, -1) translate(-105.000000, -40.500000) translate(98.500000, 37.000000)" stroke="#979797" stroke-linecap="square">
                    <path d="M6.5,0.5 L0.5,6.5" id="Line"></path>
                    <path d="M6.5,0.5 L12.5,6.5" id="Line"></path>
                </g>
                <rect id="Rectangle-51" fill-opacity="0.5" fill="#979797" x="75" y="47" width="61" height="31"></rect>
                <path d="M105,42.5031249 L105,2.5" id="Line" stroke="#979797" stroke-linecap="square"></path>
                <path d="M105,82.4968356 L105,122" id="Line" stroke="#979797" stroke-linecap="square"></path>
                <path d="M69.5,62.5 L1.49264746,62.5" id="Line" stroke="#979797" stroke-linecap="square"></path>
                <path d="M141.5,62.5 L209.5,62.5" id="Line" stroke="#979797" stroke-linecap="square"></path>
                <path d="M99.5,122.5 L110.5,122.5" id="Line-Copy-7" stroke="#979797" stroke-linecap="square"></path>
                <path d="M209.5,56.5 L209.5,68.5" id="Line-Copy-9" stroke="#979797" stroke-linecap="square"></path>
                <path d="M1.5,56.4584054 L1.5,68.5" id="Line-Copy-10" stroke="#979797" stroke-linecap="square"></path>
                <path d="M99.5,1.5 L110.5,1.5" id="Line" stroke="#979797" stroke-linecap="square"></path>
            </g>
        </g>
    </g>
</svg>