<?xml version="1.0" encoding="UTF-8" standalone="no"?>
<svg width="62px" height="35px" viewBox="0 0 62 35" version="1.1" xmlns="http://www.w3.org/2000/svg" xmlns:xlink="http://www.w3.org/1999/xlink">
    <!-- Generator: Sketch 41.1 (35376) - http://www.bohemiancoding.com/sketch -->
    <title>bg-cover</title>
    <desc>Created with Sketch.</desc>
    <defs>
        <rect id="path-1" x="0" y="0" width="60" height="29"></rect>
        <rect id="path-3" x="0" y="0" width="62" height="34.4"></rect>
        <mask id="mask-4" maskContentUnits="userSpaceOnUse" maskUnits="objectBoundingBox" x="0" y="0" width="62" height="34.4" fill="white">
            <use xlink:href="#path-3"></use>
        </mask>
    </defs>
    <g id="All-Screens" stroke="none" stroke-width="1" fill="none" fill-rule="evenodd">
        <g id="Background-Image-Modal-Copy" transform="translate(-39.000000, -406.000000)">
            <g id="bg-cover" transform="translate(39.000000, 406.000000)">
                <g id="Group-2" transform="translate(2.000000, 1.000000)">
                    <mask id="mask-2" fill="white">
                        <use xlink:href="#path-1"></use>
                    </mask>
                    <g id="Mask" transform="translate(30.000000, 14.500000) scale(1, -1) translate(-30.000000, -14.500000) "></g>
                    <path d="M19.0625,14.4375 C19.0625,16.1145917 18.4755267,17.5400983 17.3015625,18.7140625 C16.1275983,19.8880267 14.7020917,20.475 13.025,20.475 C11.3479083,20.475 9.9224017,19.8880267 8.7484375,18.7140625 C7.5744733,17.5400983 6.9875,16.1145917 6.9875,14.4375 C6.9875,12.7604083 7.5744733,11.3349017 8.7484375,10.1609375 C9.9224017,8.9869733 11.3479083,8.4 13.025,8.4 C14.7020917,8.4 16.1275983,8.9869733 17.3015625,10.1609375 C18.4755267,11.3349017 19.0625,12.7604083 19.0625,14.4375 Z M51.2625,26.5125 L51.2625,40.6 L6.9875,40.6 L6.9875,34.5625 L17.05,24.5 L22.08125,29.53125 L38.18125,13.43125 L51.2625,26.5125 Z M54.28125,4.375 L3.96875,4.375 C3.6962226,4.375 3.46038511,4.47457583 3.26123047,4.67373047 C3.06207583,4.87288511 2.9625,5.1087226 2.9625,5.38125 L2.9625,43.61875 C2.9625,43.8912774 3.06207583,44.1271149 3.26123047,44.3262695 C3.46038511,44.5254242 3.6962226,44.625 3.96875,44.625 L54.28125,44.625 C54.5537774,44.625 54.7896149,44.5254242 54.9887695,44.3262695 C55.1879242,44.1271149 55.2875,43.8912774 55.2875,43.61875 L55.2875,5.38125 C55.2875,5.1087226 55.1879242,4.87288511 54.9887695,4.67373047 C54.7896149,4.47457583 54.5537774,4.375 54.28125,4.375 Z" id="picture-o---FontAwesome" fill="#979797" mask="url(#mask-2)"></path>
                </g>
                <use id="Rectangle-3" stroke="#979797" mask="url(#mask-4)" stroke-width="2" xlink:href="#path-3"></use>
            </g>
        </g>
    </g>
</svg>