<?xml version="1.0" encoding="UTF-8" standalone="no"?>
<svg width="62px" height="35px" viewBox="0 0 62 35" version="1.1" xmlns="http://www.w3.org/2000/svg" xmlns:xlink="http://www.w3.org/1999/xlink">
    <!-- Generator: Sketch 41.1 (35376) - http://www.bohemiancoding.com/sketch -->
    <title>bg-contain</title>
    <desc>Created with Sketch.</desc>
    <defs>
        <polygon id="path-1" points="0 0 62 0 62 34.4 47.7480469 34.4 0 34.4"></polygon>
        <mask id="mask-2" maskContentUnits="userSpaceOnUse" maskUnits="objectBoundingBox" x="0" y="0" width="62" height="34.4" fill="white">
            <use xlink:href="#path-1"></use>
        </mask>
    </defs>
    <g id="All-Screens" stroke="none" stroke-width="1" fill="none" fill-rule="evenodd">
        <g id="Background-Image-Modal-Copy" transform="translate(-120.000000, -406.000000)">
            <g id="bg-contain" transform="translate(120.000000, 406.000000)">
                <path d="M14.8051282,11.1282051 C14.8051282,12.1495778 14.4476531,13.0177315 13.7326923,13.7326923 C13.0177315,14.4476531 12.1495778,14.8051282 11.1282051,14.8051282 C10.1068325,14.8051282 9.23867879,14.4476531 8.52371795,13.7326923 C7.80875711,13.0177315 7.45128205,12.1495778 7.45128205,11.1282051 C7.45128205,10.1068325 7.80875711,9.23867879 8.52371795,8.52371795 C9.23867879,7.80875711 10.1068325,7.45128205 11.1282051,7.45128205 C12.1495778,7.45128205 13.0177315,7.80875711 13.7326923,8.52371795 C14.4476531,9.23867879 14.8051282,10.1068325 14.8051282,11.1282051 Z M34.4153846,18.4820513 L34.4153846,27.0615385 L7.45128205,27.0615385 L7.45128205,23.3846154 L13.5794872,17.2564103 L16.6435897,20.3205128 L26.4487179,10.5153846 L34.4153846,18.4820513 Z M36.2538462,5 L5.61282051,5 C5.44684746,5 5.30321909,5.06064309 5.18193109,5.18193109 C5.06064309,5.30321909 5,5.44684746 5,5.61282051 L5,28.9 C5,29.0659731 5.06064309,29.2096014 5.18193109,29.3308894 C5.30321909,29.4521774 5.44684746,29.5128205 5.61282051,29.5128205 L36.2538462,29.5128205 C36.4198192,29.5128205 36.5634476,29.4521774 36.6847356,29.3308894 C36.8060236,29.2096014 36.8666667,29.0659731 36.8666667,28.9 L36.8666667,5.61282051 C36.8666667,5.44684746 36.8060236,5.30321909 36.6847356,5.18193109 C36.5634476,5.06064309 36.4198192,5 36.2538462,5 Z" id="picture-o---FontAwesome" fill="#979797"></path>
                <use id="Rectangle-3" stroke="#979797" mask="url(#mask-2)" stroke-width="2" xlink:href="#path-1"></use>
            </g>
        </g>
    </g>
</svg>