<?xml version="1.0" encoding="UTF-8" standalone="no"?>
<svg width="26px" height="21px" viewBox="0 0 26 21" version="1.1" xmlns="http://www.w3.org/2000/svg" xmlns:xlink="http://www.w3.org/1999/xlink">
    <!-- Generator: Sketch 41.1 (35376) - http://www.bohemiancoding.com/sketch -->
    <title>bg-image</title>
    <desc>Created with Sketch.</desc>
    <defs></defs>
    <g id="All-Screens" stroke="none" stroke-width="1" fill="none" fill-rule="evenodd">
        <g id="Styles-Sidebar" transform="translate(-150.000000, -1931.000000)" fill="#979797">
            <path d="M158.583333,1937.00833 C158.583333,1937.72361 158.332989,1938.33159 157.832292,1938.83229 C157.331595,1939.33299 156.723615,1939.58333 156.008333,1939.58333 C155.293052,1939.58333 154.685072,1939.33299 154.184375,1938.83229 C153.683678,1938.33159 153.433333,1937.72361 153.433333,1937.00833 C153.433333,1936.29305 153.683678,1935.68507 154.184375,1935.18438 C154.685072,1934.68368 155.293052,1934.43333 156.008333,1934.43333 C156.723615,1934.43333 157.331595,1934.68368 157.832292,1935.18438 C158.332989,1935.68507 158.583333,1936.29305 158.583333,1937.00833 Z M172.316667,1942.15833 L172.316667,1948.16667 L153.433333,1948.16667 L153.433333,1945.59167 L157.725,1941.3 L159.870833,1943.44583 L166.7375,1936.57917 L172.316667,1942.15833 Z M173.604167,1932.71667 L152.145833,1932.71667 C152.0296,1932.71667 151.929015,1932.75914 151.844076,1932.84408 C151.759136,1932.92902 151.716667,1933.0296 151.716667,1933.14583 L151.716667,1949.45417 C151.716667,1949.5704 151.759136,1949.67098 151.844076,1949.75592 C151.929015,1949.84086 152.0296,1949.88333 152.145833,1949.88333 L173.604167,1949.88333 C173.7204,1949.88333 173.820985,1949.84086 173.905924,1949.75592 C173.990864,1949.67098 174.033333,1949.5704 174.033333,1949.45417 L174.033333,1933.14583 C174.033333,1933.0296 173.990864,1932.92902 173.905924,1932.84408 C173.820985,1932.75914 173.7204,1932.71667 173.604167,1932.71667 Z M175.75,1933.14583 L175.75,1949.45417 C175.75,1950.04427 175.539889,1950.54943 175.119661,1950.96966 C174.699434,1951.38989 174.194274,1951.6 173.604167,1951.6 L152.145833,1951.6 C151.555726,1951.6 151.050566,1951.38989 150.630339,1950.96966 C150.210111,1950.54943 150,1950.04427 150,1949.45417 L150,1933.14583 C150,1932.55573 150.210111,1932.05057 150.630339,1931.63034 C151.050566,1931.21011 151.555726,1931 152.145833,1931 L173.604167,1931 C174.194274,1931 174.699434,1931.21011 175.119661,1931.63034 C175.539889,1932.05057 175.75,1932.55573 175.75,1933.14583 Z" id="bg-image"></path>
        </g>
    </g>
</svg>