<?xml version="1.0" encoding="UTF-8" standalone="no"?>
<svg width="62px" height="35px" viewBox="0 0 62 35" version="1.1" xmlns="http://www.w3.org/2000/svg" xmlns:xlink="http://www.w3.org/1999/xlink">
    <!-- Generator: Sketch 41.1 (35376) - http://www.bohemiancoding.com/sketch -->
    <title>bg-scale</title>
    <desc>Created with Sketch.</desc>
    <defs>
        <polygon id="path-1" points="0 0 62 0 62 34.4 47.7480469 34.4 0 34.4"></polygon>
        <mask id="mask-2" maskContentUnits="userSpaceOnUse" maskUnits="objectBoundingBox" x="0" y="0" width="62" height="34.4" fill="white">
            <use xlink:href="#path-1"></use>
        </mask>
    </defs>
    <g id="All-Screens" stroke="none" stroke-width="1" fill="none" fill-rule="evenodd">
        <g id="Background-Image-Modal-Copy" transform="translate(-201.000000, -406.000000)">
            <g id="bg-scale" transform="translate(201.000000, 406.000000)">
                <path d="M21.188101,10.1987305 C21.188101,11.2318574 20.5979157,12.1100021 19.4175274,12.8331909 C18.2371392,13.5563798 16.803832,13.9179688 15.1175631,13.9179688 C13.4312942,13.9179688 11.997987,13.5563798 10.8175988,12.8331909 C9.63721052,12.1100021 9.04702524,11.2318574 9.04702524,10.1987305 C9.04702524,9.16560356 9.63721052,8.28745886 10.8175988,7.56427002 C11.997987,6.84108118 13.4312942,6.47949219 15.1175631,6.47949219 C16.803832,6.47949219 18.2371392,6.84108118 19.4175274,7.56427002 C20.5979157,8.28745886 21.188101,9.16560356 21.188101,10.1987305 Z M53.5643029,17.637207 L53.5643029,26.3154297 L9.04702524,26.3154297 L9.04702524,22.5961914 L19.1645883,16.3974609 L24.2233699,19.4968262 L40.4114709,9.57885742 L53.5643029,17.637207 Z M56.5995718,4 L6.01175631,4 C5.73773761,4 5.50060959,4.06134099 5.30036515,4.18402481 C5.10012072,4.30670863 5,4.45198992 5,4.61987305 L5,28.1750488 C5,28.342932 5.10012072,28.4882132 5.30036515,28.6108971 C5.50060959,28.7335809 5.73773761,28.7949219 6.01175631,28.7949219 L56.5995718,28.7949219 C56.8735905,28.7949219 57.1107185,28.7335809 57.310963,28.6108971 C57.5112074,28.4882132 57.6113281,28.342932 57.6113281,28.1750488 L57.6113281,4.61987305 C57.6113281,4.45198992 57.5112074,4.30670863 57.310963,4.18402481 C57.1107185,4.06134099 56.8735905,4 56.5995718,4 Z" id="picture-o---FontAwesome-Copy" fill="#979797"></path>
                <use id="Rectangle-3-Copy" stroke="#979797" mask="url(#mask-2)" stroke-width="2" xlink:href="#path-1"></use>
            </g>
        </g>
    </g>
</svg>