<?xml version="1.0" encoding="UTF-8" standalone="no"?>
<svg width="36px" height="27px" viewBox="0 0 36 27" version="1.1" xmlns="http://www.w3.org/2000/svg" xmlns:xlink="http://www.w3.org/1999/xlink">
    <!-- Generator: Sketch 41.1 (35376) - http://www.bohemiancoding.com/sketch -->
    <title>display-inline-block</title>
    <desc>Created with Sketch.</desc>
    <defs></defs>
    <g id="All-Screens" stroke="none" stroke-width="1" fill="none" fill-rule="evenodd">
        <g id="Styles-Sidebar" transform="translate(-33.000000, -3103.000000)">
            <g id="display-inline-block" transform="translate(32.000000, 3103.000000)">
                <path d="M1,8 L13.5125,8" id="Line" stroke="#888C90" stroke-width="2"></path>
                <path d="M25.9285714,8 L37,8" id="Line-Copy" stroke="#888C90" stroke-width="2"></path>
                <path d="M19,1 L28.1666667,1" id="Line-Copy-7" stroke="#888C90" stroke-width="2"></path>
                <path d="M16.875,8 L22.125,8" id="Line-Copy-2" stroke="#888C90" stroke-width="2"></path>
                <path d="M1,1 L6.5125,1" id="Line-Copy-6" stroke="#888C90" stroke-width="2"></path>
                <path d="M31,1 L37,1" id="Line-Copy-5" stroke="#888C90" stroke-width="2"></path>
                <path d="M10,1 L15.25,1" id="Line-Copy-4" stroke="#888C90" stroke-width="2"></path>
                <path d="M23,26 L28.25,26" id="Line-Copy-11" stroke="#888C90" stroke-width="2"></path>
                <path d="M1,26 L6.5125,26" id="Line-Copy-10" stroke="#888C90" stroke-width="2"></path>
                <path d="M31.875,26 L37,26" id="Line-Copy-9" stroke="#888C90" stroke-width="2"></path>
                <path d="M10,26 L19.1666667,26" id="Line-Copy-8" stroke="#888C90" stroke-width="2"></path>
                <path d="M1,19 L9.3875,19" id="Line" stroke="#888C90" stroke-width="2"></path>
                <path d="M32,19 L37,19" id="Line-Copy-3" stroke="#888C90" stroke-width="2"></path>
                <rect id="Rectangle-4" fill="#979797" fill-rule="evenodd" x="12" y="12" width="17" height="9"></rect>
            </g>
        </g>
    </g>
</svg>