<svg fill="none" xmlns="http://www.w3.org/2000/svg" viewBox="0 0 36 36">
  <g clip-path="url(#eRACMX1lDa)">
    <path d="M26 9c-3.591 0-6.27-1.648-7.989-4.905C16.385 7.314 13.993 9 11 9a1 1 0 010-2c2.729 0 4.765-1.957 6.051-5.816a1 1 0 011.898 0C20.271 5.151 22.512 7 26 7a1 1 0 110 2z" fill="#292F33"/>
    <path d="M14.711 9.654c3.364 3.366.498 5.954-2.868 9.319-3.365 3.365-5.954 6.232-9.319 2.868a8.616 8.616 0 010-12.187 8.616 8.616 0 0112.187 0z" fill="#FFAC33"/>
    <path d="M15.542 10.972c1.584 1.585.248 5.486-2.983 8.717-3.23 3.231-7.132 4.568-8.717 2.982-1.584-1.584-.248-5.486 2.982-8.717 3.232-3.23 7.134-4.566 8.718-2.982z" fill="#BE1931"/>
    <path d="M21.289 9.654c-3.363 3.366-.498 5.954 2.868 9.319 3.365 3.365 5.954 6.232 9.319 2.868A8.618 8.618 0 0021.289 9.654z" fill="#FFAC33"/>
    <path d="M20.459 10.972c-1.585 1.585-.25 5.486 2.982 8.717 3.23 3.231 7.133 4.568 8.717 2.982 1.584-1.584.248-5.486-2.983-8.717-3.23-3.23-7.133-4.566-8.716-2.982z" fill="#BE1931"/>
    <path d="M22.41 18.221a1 1 0 01.734-.215c.867.094 1.598.396 2.109.873.54.505.807 1.183.734 1.862-.13 1.191-1.324 2.285-3.363 2.065-.793-.085-1.146.17-1.158.291-.014.121.277.446 1.07.532.867.094 1.598.396 2.109.873.54.505.809 1.183.734 1.862-.13 1.192-1.324 2.285-3.361 2.066-.578-.062-.883.057-1.012.134-.103.063-.144.124-.148.158-.012.12.275.445 1.07.531a1 1 0 01-.215 1.989c-2.037-.219-2.973-1.542-2.844-2.735.129-1.192 1.324-2.285 3.363-2.065.578.063.88-.057 1.01-.134.104-.062.145-.123.148-.157.014-.121-.275-.446-1.07-.532-2.037-.22-2.973-1.542-2.844-2.735.129-1.192 1.324-2.286 3.36-2.064.579.062.884-.058 1.013-.135.103-.062.144-.123.148-.157.012-.121-.277-.446-1.07-.532a1 1 0 01-.517-1.775z" fill="#AA8DD8"/>
    <path d="M15.266 35.828c-1.973.557-3.334-.322-3.658-1.477-.324-1.154.378-2.615 2.35-3.17.77-.216 1-.584.97-.701-.034-.119-.425-.312-1.193-.096-1.972.556-3.333-.324-3.657-1.479-.326-1.155.378-2.614 2.35-3.169.77-.217 1.002-.586.968-.703-.033-.116-.423-.311-1.192-.095a1 1 0 11-.54-1.924c1.97-.555 3.333.322 3.659 1.479.324 1.154-.38 2.613-2.352 3.17-.77.216-1.001.584-.967.701.032.117.422.312 1.19.096 1.974-.556 3.334.322 3.659 1.479.325 1.153-.378 2.612-2.352 3.169-.768.215-1 .586-.967.701.034.118.423.312 1.192.097a.998.998 0 11.54 1.922z" fill="#77B255"/>
    <path d="M2.5 29a1.5 1.5 0 100-3 1.5 1.5 0 000 3z" fill="#5C913B"/>
    <path d="M7 33a2 2 0 100-4 2 2 0 000 4zm23-4a2 2 0 100-4 2 2 0 000 4z" fill="#9266CC"/>
    <path d="M25.5 33a1.5 1.5 0 100-3 1.5 1.5 0 000 3zm-8-12a1.5 1.5 0 100-3 1.5 1.5 0 000 3z" fill="#5C913B"/>
    <path d="M7 25a2 2 0 100-4 2 2 0 000 4zm20.5-7a1.5 1.5 0 100-3 1.5 1.5 0 000 3zm-15-2a1.5 1.5 0 100-3 1.5 1.5 0 000 3z" fill="#FFCC4D"/>
  </g>
  <defs>
    <clipPath id="eRACMX1lDa">
      <path fill="#fff" d="M0 0h36v36H0z"/>
    </clipPath>
  </defs>
</svg>
