<?xml version="1.0" encoding="iso-8859-1"?>
<!-- Generator: Adobe Illustrator 16.0.0, SVG Export Plug-In . SVG Version: 6.00 Build 0)  -->
<!DOCTYPE svg PUBLIC "-//W3C//DTD SVG 1.1//EN" "http://www.w3.org/Graphics/SVG/1.1/DTD/svg11.dtd">
<svg version="1.1" id="Capa_1" xmlns="http://www.w3.org/2000/svg" xmlns:xlink="http://www.w3.org/1999/xlink" x="0px" y="0px"
	 width="45.973px" height="45.972px" viewBox="0 0 45.973 45.972" style="enable-background:new 0 0 45.973 45.972;"
	 xml:space="preserve">
<g>
	<g>
		<path d="M44.752,20.914L25.935,2.094c-0.781-0.781-1.842-1.22-2.946-1.22c-1.105,0-2.166,0.439-2.947,1.22L1.221,20.914
			c-1.191,1.191-1.548,2.968-0.903,4.525c0.646,1.557,2.165,2.557,3.85,2.557h2.404v13.461c0,2.013,1.607,3.642,3.621,3.642h3.203
			V32.93c0-0.927,0.766-1.651,1.692-1.651h6.223c0.926,0,1.673,0.725,1.673,1.651v12.168h12.799c2.013,0,3.612-1.629,3.612-3.642
			V27.996h2.411c1.685,0,3.204-1,3.85-2.557C46.3,23.882,45.944,22.106,44.752,20.914z"/>
	</g>
</g>
<g>
</g>
<g>
</g>
<g>
</g>
<g>
</g>
<g>
</g>
<g>
</g>
<g>
</g>
<g>
</g>
<g>
</g>
<g>
</g>
<g>
</g>
<g>
</g>
<g>
</g>
<g>
</g>
<g>
</g>
</svg>
