<svg xmlns="http://www.w3.org/2000/svg" fill="none" viewBox="0 0 24 24" height="24" width="24">
<path fill="currentcolor" d="M12 15C13.6568 15 15 13.6569 15 12C15 10.3431 13.6568 9 12 9C10.3431 9 8.99998 10.3431 8.99998 12C8.99998 13.6569 10.3431 15 12 15Z"/>
<path fill="currentcolor" d="M21.4394 11.6572C21.4394 11.6572 21.4398 11.6583 20.5 12C21.4398 12.3417 21.4394 12.3428 21.4394 12.3428L21.439 12.3439L21.438 12.3466L21.4354 12.3535L21.428 12.3732C21.422 12.3889 21.4138 12.4099 21.4034 12.4356C21.3827 12.487 21.3531 12.5578 21.3139 12.6452C21.2357 12.8198 21.1189 13.0617 20.9582 13.3484C20.6376 13.9202 20.137 14.6797 19.4108 15.4405C17.9445 16.9767 15.5699 18.5 12 18.5C8.43007 18.5 6.0555 16.9767 4.58912 15.4405C3.86294 14.6797 3.36231 13.9202 3.04176 13.3484C2.88105 13.0617 2.76427 12.8198 2.68602 12.6452C2.64687 12.5578 2.61725 12.487 2.59652 12.4356C2.58615 12.4099 2.57799 12.3889 2.57197 12.3732L2.56451 12.3535L2.56196 12.3466L2.56098 12.3439L2.56056 12.3428C2.56056 12.3428 2.56018 12.3417 3.49998 12C2.56018 11.6583 2.56056 11.6572 2.56056 11.6572L2.56098 11.6561L2.56196 11.6534L2.56451 11.6465L2.57197 11.6268C2.57799 11.6111 2.58615 11.5901 2.59652 11.5644C2.61725 11.513 2.64687 11.4422 2.68602 11.3548C2.76427 11.1802 2.88105 10.9383 3.04176 10.6516C3.36231 10.0798 3.86294 9.32029 4.58912 8.55952C6.0555 7.02332 8.43007 5.5 12 5.5C15.5699 5.5 17.9445 7.02332 19.4108 8.55952C20.137 9.32029 20.6376 10.0798 20.9582 10.6516C21.1189 10.9383 21.2357 11.1802 21.3139 11.3548C21.3531 11.4422 21.3827 11.513 21.4034 11.5644C21.4138 11.5901 21.422 11.6111 21.428 11.6268L21.4354 11.6465L21.438 11.6534L21.439 11.6561L21.4394 11.6572ZM4.78632 12.3704C4.70753 12.2298 4.6431 12.1048 4.59202 12C4.6431 11.8952 4.70753 11.7702 4.78632 11.6296C5.04389 11.1702 5.44952 10.5547 6.03583 9.94048C7.19445 8.72668 9.06989 7.5 12 7.5C14.9301 7.5 16.8055 8.72668 17.9641 9.94048C18.5504 10.5547 18.9561 11.1702 19.2136 11.6296C19.2924 11.7702 19.3568 11.8952 19.4079 12C19.3568 12.1048 19.2924 12.2298 19.2136 12.3704C18.9561 12.8298 18.5504 13.4453 17.9641 14.0595C16.8055 15.2733 14.9301 16.5 12 16.5C9.06989 16.5 7.19445 15.2733 6.03583 14.0595C5.44952 13.4453 5.04389 12.8298 4.78632 12.3704Z" clip-rule="evenodd" fill-rule="evenodd"/>
<path fill="white" d="M20.5 12L21.4398 11.6583L21.564 12L21.4398 12.3417L20.5 12Z"/>
<path fill="white" d="M2.56018 11.6583L3.49998 12L2.56018 12.3417L2.43591 12L2.56018 11.6583Z"/>
</svg>
