<svg xmlns="http://www.w3.org/2000/svg" fill="none" viewBox="0 0 24 24" height="24" width="24">
<g clip-path="url(#clip0)">
<path fill="#050505" d="M3.99999 11.2765L3.99999 20C3.99999 20.5523 4.4477 21 4.99999 21L8.02757 21L3.99999 11.2765Z" clip-rule="evenodd" fill-rule="evenodd"/>
<path fill="#050505" d="M7.04641 8.1788L11.6386 19.2654L19.0297 16.2039L14.4375 5.11733L7.04641 8.1788ZM5.35717 6.71372C4.84692 6.92507 4.60462 7.51004 4.81597 8.02028L10.1735 20.9546C10.3849 21.4648 10.9699 21.7071 11.4801 21.4958L20.7189 17.669C21.2291 17.4576 21.4714 16.8726 21.2601 16.3624L15.9025 3.42808C15.6912 2.91784 15.1062 2.67554 14.596 2.88689L5.35717 6.71372Z" clip-rule="evenodd" fill-rule="evenodd"/>
<circle fill="#050505" transform="rotate(-22.5 10.3129 9.53178)" r="1.5" cy="9.53178" cx="10.3129"/>
</g>
<defs>
<clipPath id="clip0">
<rect fill="white" height="24" width="24"/>
</clipPath>
</defs>
</svg>
