<svg xmlns="http://www.w3.org/2000/svg" fill="none" viewBox="0 0 24 24" height="24" width="24">
<g clip-path="url(#clip0)">
<path fill="#050505" d="M3.99999 11.2765L3.99999 20C3.99999 20.5523 4.4477 21 4.99999 21L8.02757 21L3.99999 11.2765Z" clip-rule="evenodd" fill-rule="evenodd"/>
<path fill="#050505" d="M5.35723 6.71371C4.84698 6.92506 4.60468 7.51002 4.81603 8.02027L10.1736 20.9546C10.385 21.4648 10.9699 21.7071 11.4802 21.4958L20.719 17.6689C21.2292 17.4576 21.4715 16.8726 21.2602 16.3624L15.9026 3.42807C15.6912 2.91782 15.1063 2.67552 14.596 2.88687L5.35723 6.71371ZM9.58034 10.3764C10.3457 10.0594 10.7092 9.18191 10.3921 8.41654C10.0751 7.65118 9.19766 7.28772 8.43229 7.60475C7.66692 7.92178 7.30347 8.79923 7.6205 9.56459C7.93752 10.33 8.81497 10.6934 9.58034 10.3764Z" clip-rule="evenodd" fill-rule="evenodd"/>
</g>
<defs>
<clipPath id="clip0">
<rect fill="white" height="24" width="24"/>
</clipPath>
</defs>
</svg>
