<svg xmlns="http://www.w3.org/2000/svg" fill="none" viewBox="0 0 24 24" height="24" width="24">
<mask fill="white" id="path-1-inside-1">
<path d="M8 4H7V6H8V14L6.4 15.2C6.14819 15.3889 6 15.6852 6 16V17H8H11V20C11 20.5523 11.4477 21 12 21C12.5523 21 13 20.5523 13 20V17H16H18V16C18 15.6852 17.8518 15.3889 17.6 15.2L16 14V6H17V4H16H8Z" clip-rule="evenodd" fill-rule="evenodd"/>
</mask>
<path mask="url(#path-1-inside-1)" fill="#050505" d="M7 4V2H5V4H7ZM7 6H5V8H7V6ZM8 6H10V4H8V6ZM8 14L9.2 15.6L10 15V14H8ZM6.4 15.2L7.6 16.8H7.6L6.4 15.2ZM6 17H4V19H6V17ZM11 17H13V15H11V17ZM13 17V15H11V17H13ZM18 17V19H20V17H18ZM17.6 15.2L18.8 13.6L18.8 13.6L17.6 15.2ZM16 14H14V15L14.8 15.6L16 14ZM16 6V4H14V6H16ZM17 6V8H19V6H17ZM17 4H19V2H17V4ZM7 6H8V2H7V6ZM9 6V4H5V6H9ZM8 4H7V8H8V4ZM10 14V6H6V14H10ZM7.6 16.8L9.2 15.6L6.8 12.4L5.2 13.6L7.6 16.8ZM8 16C8 16.3148 7.85181 16.6111 7.6 16.8L5.2 13.6C4.44458 14.1666 4 15.0557 4 16H8ZM8 17V16H4V17H8ZM8 15H6V19H8V15ZM11 15H8V19H11V15ZM13 20V17H9V20H13ZM12 19C12.5523 19 13 19.4477 13 20H9C9 21.6569 10.3431 23 12 23V19ZM11 20C11 19.4477 11.4477 19 12 19V23C13.6569 23 15 21.6569 15 20H11ZM11 17V20H15V17H11ZM16 15H13V19H16V15ZM18 15H16V19H18V15ZM16 16V17H20V16H16ZM16.4 16.8C16.1482 16.6111 16 16.3148 16 16H20C20 15.0557 19.5554 14.1666 18.8 13.6L16.4 16.8ZM14.8 15.6L16.4 16.8L18.8 13.6L17.2 12.4L14.8 15.6ZM14 6V14H18V6H14ZM17 4H16V8H17V4ZM15 4V6H19V4H15ZM16 6H17V2H16V6ZM8 6H16V2H8V6Z"/>
<path fill="white" d="M10 14.5H14L14.5 15H9.5L10 14.5Z"/>
</svg>
