<svg xmlns="http://www.w3.org/2000/svg" xmlns:xlink="http://www.w3.org/1999/xlink" viewBox="0 0 66 54" fill="#fff" fill-rule="evenodd" stroke="#000" stroke-linecap="round" stroke-linejoin="round">
  <use xlink:href="#ASvdhk8Uda" x=".5" y=".5"/>
  <defs>
    <linearGradient x1="0%" y1="50%" y2="50%" id="ASvdhk8Udb" x2="100%">
      <stop stop-color="#2a3b8f" offset="0%"/>
      <stop stop-color="#29abe2" offset="100%"/>
    </linearGradient>
    <linearGradient x1="100%" y1="50%" x2="0%" y2="50%" id="ASvdhk8Udc">
      <stop stop-color="#b4d44e" offset="0%"/>
      <stop stop-color="#e7f716" offset="100%"/>
    </linearGradient>
  </defs>
  <symbol id="ASvdhk8Uda" overflow="visible">
    <g stroke="none">
      <path d="M64 26.047l-6.951 11.705-9.748-11.865 9.748-11.546z" fill="#166da5"/>
      <path d="M56.29 39.75L45.703 27.086l-6.352 10.627 9.868 14.422z" fill="#8fdb69"/>
      <path d="M56.17 12.265L45.703 24.969l-6.352-10.627L49.219.08z" fill="#166da5"/>
      <path d="M24.25 12.265h31.92L49.139 0H31.281zm21.453 12.744h17.658l-6.352-10.707H39.311" fill="url(#ASvdhk8Udb)" opacity=".95"/>
      <path d="M56.29 39.79H24.21l7.031 12.185h17.978zM45.703 27.046h17.658l-6.352 10.707H39.311" fill="url(#ASvdhk8Udc)" opacity=".95"/>
      <path d="M31.241 51.975L16.22 26.008 31.441.04h-16.46L0 26.008l14.981 25.967z" fill="#010101"/>
    </g>
  </symbol>
</svg>
