<svg xmlns="http://www.w3.org/2000/svg" viewBox="0 0 400 298">
  <g fill="none">
    <path fill="#00C58E" d="M227.921 82.074l-13.689 23.704-46.815-81.087-143.713 248.89h97.303c0 13.09 10.613 23.703 23.704 23.703H23.704A23.704 23.704 0 013.18 261.728L146.893 12.84a23.704 23.704 0 0141.057 0l39.97 69.234z"/>
    <path fill="#2F495E" d="M331.664 261.728l-90.054-155.95-13.689-23.704-13.689 23.704-90.044 155.95a23.704 23.704 0 0020.523 35.556h166.4a23.704 23.704 0 0020.533-35.556h.02zM144.711 273.58l83.21-144.099 83.19 144.1h-166.4z"/>
    <path fill="#108775" d="M396.05 285.432a23.7 23.7 0 01-20.524 11.852H311.11c13.091 0 23.704-10.613 23.704-23.704h40.662L260.099 73.748l-18.49 32.03-13.688-23.704 11.654-20.178a23.704 23.704 0 0141.057 0L396.05 261.728a23.704 23.704 0 010 23.704z"/>
  </g>
</svg>
